<svg width="24" height="32" viewBox="0 0 24 32" fill="none" xmlns="http://www.w3.org/2000/svg">
<g clip-path="url(#clip0_53_18)">
<path fill-rule="evenodd" clip-rule="evenodd" d="M0 13.9131H1.3913V15.3044H0V13.9131Z" fill="black"/>
<path fill-rule="evenodd" clip-rule="evenodd" d="M0 15.3043H1.3913V16.6956H0V15.3043Z" fill="black"/>
<path fill-rule="evenodd" clip-rule="evenodd" d="M0 16.6957H1.3913V18.087H0V16.6957Z" fill="black"/>
<path fill-rule="evenodd" clip-rule="evenodd" d="M1.3913 13.9131H2.7826V15.3044H1.3913V13.9131Z" fill="black"/>
<path fill-rule="evenodd" clip-rule="evenodd" d="M1.3913 15.3043H2.7826V16.6956H1.3913V15.3043Z" fill="white"/>
<path fill-rule="evenodd" clip-rule="evenodd" d="M1.3913 16.6957H2.7826V18.087H1.3913V16.6957Z" fill="white"/>
<path fill-rule="evenodd" clip-rule="evenodd" d="M1.3913 18.0869H2.7826V19.4782H1.3913V18.0869Z" fill="black"/>
<path fill-rule="evenodd" clip-rule="evenodd" d="M2.78262 13.9131H4.17393V15.3044H2.78262V13.9131Z" fill="black"/>
<path fill-rule="evenodd" clip-rule="evenodd" d="M2.78262 15.3043H4.17393V16.6956H2.78262V15.3043Z" fill="white"/>
<path fill-rule="evenodd" clip-rule="evenodd" d="M2.78262 16.6957H4.17393V18.087H2.78262V16.6957Z" fill="white"/>
<path fill-rule="evenodd" clip-rule="evenodd" d="M2.78262 18.0869H4.17393V19.4782H2.78262V18.0869Z" fill="white"/>
<path fill-rule="evenodd" clip-rule="evenodd" d="M2.78262 19.4783H4.17393V20.8696H2.78262V19.4783Z" fill="black"/>
<path fill-rule="evenodd" clip-rule="evenodd" d="M2.78262 20.8696H4.17393V22.2609H2.78262V20.8696Z" fill="black"/>
<path fill-rule="evenodd" clip-rule="evenodd" d="M4.17392 15.3043H5.56522V16.6956H4.17392V15.3043Z" fill="black"/>
<path fill-rule="evenodd" clip-rule="evenodd" d="M4.17392 16.6957H5.56522V18.087H4.17392V16.6957Z" fill="white"/>
<path fill-rule="evenodd" clip-rule="evenodd" d="M4.17392 18.087H5.56522V19.4783H4.17392V18.087Z" fill="white"/>
<path fill-rule="evenodd" clip-rule="evenodd" d="M4.17392 19.4783H5.56522V20.8696H4.17392V19.4783Z" fill="white"/>
<path fill-rule="evenodd" clip-rule="evenodd" d="M4.17392 20.8696H5.56522V22.2609H4.17392V20.8696Z" fill="white"/>
<path fill-rule="evenodd" clip-rule="evenodd" d="M4.17392 22.2609H5.56522V23.6522H4.17392V22.2609Z" fill="black"/>
<path fill-rule="evenodd" clip-rule="evenodd" d="M4.17392 23.6522H5.56522V25.0435H4.17392V23.6522Z" fill="black"/>
<path fill-rule="evenodd" clip-rule="evenodd" d="M5.56522 1.39136H6.95652V2.78266H5.56522V1.39136Z" fill="black"/>
<path fill-rule="evenodd" clip-rule="evenodd" d="M5.56522 2.78259H6.95652V4.1739H5.56522V2.78259Z" fill="black"/>
<path fill-rule="evenodd" clip-rule="evenodd" d="M5.56522 4.17395H6.95652V5.56526H5.56522V4.17395Z" fill="black"/>
<path fill-rule="evenodd" clip-rule="evenodd" d="M5.56522 5.56519H6.95652V6.95649H5.56522V5.56519Z" fill="black"/>
<path fill-rule="evenodd" clip-rule="evenodd" d="M5.56522 6.95654H6.95652V8.34785H5.56522V6.95654Z" fill="black"/>
<path fill-rule="evenodd" clip-rule="evenodd" d="M5.56522 8.34778H6.95652V9.73908H5.56522V8.34778Z" fill="black"/>
<path fill-rule="evenodd" clip-rule="evenodd" d="M5.56522 9.73914H6.95652V11.1304H5.56522V9.73914Z" fill="black"/>
<path fill-rule="evenodd" clip-rule="evenodd" d="M5.56522 11.1305H6.95652V12.5218H5.56522V11.1305Z" fill="black"/>
<path fill-rule="evenodd" clip-rule="evenodd" d="M5.56522 12.5217H6.95652V13.913H5.56522V12.5217Z" fill="black"/>
<path fill-rule="evenodd" clip-rule="evenodd" d="M5.56522 13.9131H6.95652V15.3044H5.56522V13.9131Z" fill="black"/>
<path fill-rule="evenodd" clip-rule="evenodd" d="M5.56522 15.3043H6.95652V16.6956H5.56522V15.3043Z" fill="black"/>
<path fill-rule="evenodd" clip-rule="evenodd" d="M5.56522 16.6957H6.95652V18.087H5.56522V16.6957Z" fill="black"/>
<path fill-rule="evenodd" clip-rule="evenodd" d="M5.56522 18.0869H6.95652V19.4782H5.56522V18.0869Z" fill="black"/>
<path fill-rule="evenodd" clip-rule="evenodd" d="M5.56522 19.4783H6.95652V20.8696H5.56522V19.4783Z" fill="white"/>
<path fill-rule="evenodd" clip-rule="evenodd" d="M5.56522 20.8696H6.95652V22.2609H5.56522V20.8696Z" fill="white"/>
<path fill-rule="evenodd" clip-rule="evenodd" d="M5.56522 22.2609H6.95652V23.6522H5.56522V22.2609Z" fill="white"/>
<path fill-rule="evenodd" clip-rule="evenodd" d="M5.56522 23.6522H6.95652V25.0435H5.56522V23.6522Z" fill="white"/>
<path fill-rule="evenodd" clip-rule="evenodd" d="M5.56522 25.0435H6.95652V26.4348H5.56522V25.0435Z" fill="black"/>
<path fill-rule="evenodd" clip-rule="evenodd" d="M5.56522 26.4348H6.95652V27.8261H5.56522V26.4348Z" fill="black"/>
<path fill-rule="evenodd" clip-rule="evenodd" d="M6.95651 0H8.34782V1.3913H6.95651V0Z" fill="black"/>
<path fill-rule="evenodd" clip-rule="evenodd" d="M6.95651 1.39136H8.34782V2.78266H6.95651V1.39136Z" fill="white"/>
<path fill-rule="evenodd" clip-rule="evenodd" d="M6.95651 2.78271H8.34782V4.17402H6.95651V2.78271Z" fill="white"/>
<path fill-rule="evenodd" clip-rule="evenodd" d="M6.95651 4.17395H8.34782V5.56525H6.95651V4.17395Z" fill="white"/>
<path fill-rule="evenodd" clip-rule="evenodd" d="M6.95651 5.56531H8.34782V6.95661H6.95651V5.56531Z" fill="white"/>
<path fill-rule="evenodd" clip-rule="evenodd" d="M6.95651 6.95654H8.34782V8.34785H6.95651V6.95654Z" fill="white"/>
<path fill-rule="evenodd" clip-rule="evenodd" d="M6.95651 8.3479H8.34782V9.7392H6.95651V8.3479Z" fill="white"/>
<path fill-rule="evenodd" clip-rule="evenodd" d="M6.95651 9.73914H8.34782V11.1304H6.95651V9.73914Z" fill="white"/>
<path fill-rule="evenodd" clip-rule="evenodd" d="M6.95651 11.1305H8.34782V12.5218H6.95651V11.1305Z" fill="white"/>
<path fill-rule="evenodd" clip-rule="evenodd" d="M6.95651 12.5219H8.34782V13.9132H6.95651V12.5219Z" fill="white"/>
<path fill-rule="evenodd" clip-rule="evenodd" d="M6.95651 13.9131H8.34782V15.3044H6.95651V13.9131Z" fill="white"/>
<path fill-rule="evenodd" clip-rule="evenodd" d="M6.95651 15.3044H8.34782V16.6957H6.95651V15.3044Z" fill="white"/>
<path fill-rule="evenodd" clip-rule="evenodd" d="M6.95651 16.6957H8.34782V18.087H6.95651V16.6957Z" fill="white"/>
<path fill-rule="evenodd" clip-rule="evenodd" d="M6.95651 18.087H8.34782V19.4783H6.95651V18.087Z" fill="white"/>
<path fill-rule="evenodd" clip-rule="evenodd" d="M6.95651 19.4783H8.34782V20.8696H6.95651V19.4783Z" fill="white"/>
<path fill-rule="evenodd" clip-rule="evenodd" d="M6.95651 20.8696H8.34782V22.2609H6.95651V20.8696Z" fill="white"/>
<path fill-rule="evenodd" clip-rule="evenodd" d="M6.95651 22.261H8.34782V23.6523H6.95651V22.261Z" fill="white"/>
<path fill-rule="evenodd" clip-rule="evenodd" d="M6.95651 23.6522H8.34782V25.0435H6.95651V23.6522Z" fill="white"/>
<path fill-rule="evenodd" clip-rule="evenodd" d="M6.95651 25.0436H8.34782V26.4349H6.95651V25.0436Z" fill="white"/>
<path fill-rule="evenodd" clip-rule="evenodd" d="M6.95651 26.4348H8.34782V27.8261H6.95651V26.4348Z" fill="white"/>
<path fill-rule="evenodd" clip-rule="evenodd" d="M6.95651 27.826H8.34782V29.2174H6.95651V27.826Z" fill="black"/>
<path fill-rule="evenodd" clip-rule="evenodd" d="M6.95651 29.2174H8.34782V30.6087H6.95651V29.2174Z" fill="black"/>
<path fill-rule="evenodd" clip-rule="evenodd" d="M6.95651 30.6086H8.34782V31.9999H6.95651V30.6086Z" fill="black"/>
<path fill-rule="evenodd" clip-rule="evenodd" d="M8.34784 0H9.73914V1.3913H8.34784V0Z" fill="black"/>
<path fill-rule="evenodd" clip-rule="evenodd" d="M8.34784 1.39136H9.73914V2.78266H8.34784V1.39136Z" fill="white"/>
<path fill-rule="evenodd" clip-rule="evenodd" d="M8.34784 2.78271H9.73914V4.17402H8.34784V2.78271Z" fill="white"/>
<path fill-rule="evenodd" clip-rule="evenodd" d="M8.34784 4.17395H9.73914V5.56525H8.34784V4.17395Z" fill="white"/>
<path fill-rule="evenodd" clip-rule="evenodd" d="M8.34784 5.56531H9.73914V6.95661H8.34784V5.56531Z" fill="white"/>
<path fill-rule="evenodd" clip-rule="evenodd" d="M8.34784 6.95654H9.73914V8.34785H8.34784V6.95654Z" fill="white"/>
<path fill-rule="evenodd" clip-rule="evenodd" d="M8.34784 8.3479H9.73914V9.7392H8.34784V8.3479Z" fill="white"/>
<path fill-rule="evenodd" clip-rule="evenodd" d="M8.34784 9.73914H9.73914V11.1304H8.34784V9.73914Z" fill="white"/>
<path fill-rule="evenodd" clip-rule="evenodd" d="M8.34784 11.1305H9.73914V12.5218H8.34784V11.1305Z" fill="white"/>
<path fill-rule="evenodd" clip-rule="evenodd" d="M8.34784 12.5219H9.73914V13.9132H8.34784V12.5219Z" fill="white"/>
<path fill-rule="evenodd" clip-rule="evenodd" d="M8.34784 13.9131H9.73914V15.3044H8.34784V13.9131Z" fill="white"/>
<path fill-rule="evenodd" clip-rule="evenodd" d="M8.34784 15.3044H9.73914V16.6957H8.34784V15.3044Z" fill="white"/>
<path fill-rule="evenodd" clip-rule="evenodd" d="M8.34784 16.6957H9.73914V18.087H8.34784V16.6957Z" fill="white"/>
<path fill-rule="evenodd" clip-rule="evenodd" d="M8.34784 18.087H9.73914V19.4783H8.34784V18.087Z" fill="white"/>
<path fill-rule="evenodd" clip-rule="evenodd" d="M8.34784 19.4783H9.73914V20.8696H8.34784V19.4783Z" fill="white"/>
<path fill-rule="evenodd" clip-rule="evenodd" d="M8.34784 20.8696H9.73914V22.2609H8.34784V20.8696Z" fill="white"/>
<path fill-rule="evenodd" clip-rule="evenodd" d="M8.34784 22.261H9.73914V23.6523H8.34784V22.261Z" fill="white"/>
<path fill-rule="evenodd" clip-rule="evenodd" d="M8.34784 23.6522H9.73914V25.0435H8.34784V23.6522Z" fill="white"/>
<path fill-rule="evenodd" clip-rule="evenodd" d="M8.34784 25.0436H9.73914V26.4349H8.34784V25.0436Z" fill="white"/>
<path fill-rule="evenodd" clip-rule="evenodd" d="M8.34784 26.4348H9.73914V27.8261H8.34784V26.4348Z" fill="white"/>
<path fill-rule="evenodd" clip-rule="evenodd" d="M8.34784 27.8262H9.73914V29.2175H8.34784V27.8262Z" fill="white"/>
<path fill-rule="evenodd" clip-rule="evenodd" d="M8.34784 29.2174H9.73914V30.6087H8.34784V29.2174Z" fill="white"/>
<path fill-rule="evenodd" clip-rule="evenodd" d="M8.34784 30.6086H9.73914V31.9999H8.34784V30.6086Z" fill="black"/>
<path fill-rule="evenodd" clip-rule="evenodd" d="M9.73914 1.39136H11.1304V2.78266H9.73914V1.39136Z" fill="black"/>
<path fill-rule="evenodd" clip-rule="evenodd" d="M9.73914 2.78259H11.1304V4.1739H9.73914V2.78259Z" fill="black"/>
<path fill-rule="evenodd" clip-rule="evenodd" d="M9.73914 4.17395H11.1304V5.56526H9.73914V4.17395Z" fill="black"/>
<path fill-rule="evenodd" clip-rule="evenodd" d="M9.73914 5.56519H11.1304V6.95649H9.73914V5.56519Z" fill="black"/>
<path fill-rule="evenodd" clip-rule="evenodd" d="M9.73914 6.95654H11.1304V8.34785H9.73914V6.95654Z" fill="black"/>
<path fill-rule="evenodd" clip-rule="evenodd" d="M9.73914 8.34778H11.1304V9.73908H9.73914V8.34778Z" fill="black"/>
<path fill-rule="evenodd" clip-rule="evenodd" d="M9.73914 9.73914H11.1304V11.1304H9.73914V9.73914Z" fill="black"/>
<path fill-rule="evenodd" clip-rule="evenodd" d="M9.73914 11.1305H11.1304V12.5218H9.73914V11.1305Z" fill="black"/>
<path fill-rule="evenodd" clip-rule="evenodd" d="M9.73914 12.5217H11.1304V13.913H9.73914V12.5217Z" fill="black"/>
<path fill-rule="evenodd" clip-rule="evenodd" d="M9.73914 13.9131H11.1304V15.3044H9.73914V13.9131Z" fill="white"/>
<path fill-rule="evenodd" clip-rule="evenodd" d="M9.73914 15.3044H11.1304V16.6957H9.73914V15.3044Z" fill="white"/>
<path fill-rule="evenodd" clip-rule="evenodd" d="M9.73914 16.6957H11.1304V18.087H9.73914V16.6957Z" fill="white"/>
<path fill-rule="evenodd" clip-rule="evenodd" d="M9.73914 18.087H11.1304V19.4783H9.73914V18.087Z" fill="white"/>
<path fill-rule="evenodd" clip-rule="evenodd" d="M9.73914 19.4783H11.1304V20.8696H9.73914V19.4783Z" fill="white"/>
<path fill-rule="evenodd" clip-rule="evenodd" d="M9.73914 20.8696H11.1304V22.2609H9.73914V20.8696Z" fill="white"/>
<path fill-rule="evenodd" clip-rule="evenodd" d="M9.73914 22.2609H11.1304V23.6522H9.73914V22.2609Z" fill="white"/>
<path fill-rule="evenodd" clip-rule="evenodd" d="M9.73914 23.6522H11.1304V25.0435H9.73914V23.6522Z" fill="white"/>
<path fill-rule="evenodd" clip-rule="evenodd" d="M9.73914 25.0436H11.1304V26.4349H9.73914V25.0436Z" fill="white"/>
<path fill-rule="evenodd" clip-rule="evenodd" d="M9.73914 26.4348H11.1304V27.8261H9.73914V26.4348Z" fill="white"/>
<path fill-rule="evenodd" clip-rule="evenodd" d="M9.73914 27.8262H11.1304V29.2175H9.73914V27.8262Z" fill="white"/>
<path fill-rule="evenodd" clip-rule="evenodd" d="M9.73914 29.2174H11.1304V30.6087H9.73914V29.2174Z" fill="white"/>
<path fill-rule="evenodd" clip-rule="evenodd" d="M9.73914 30.6086H11.1304V31.9999H9.73914V30.6086Z" fill="black"/>
<path fill-rule="evenodd" clip-rule="evenodd" d="M11.1304 6.95654H12.5217V8.34785H11.1304V6.95654Z" fill="black"/>
<path fill-rule="evenodd" clip-rule="evenodd" d="M11.1304 8.34778H12.5217V9.73908H11.1304V8.34778Z" fill="white"/>
<path fill-rule="evenodd" clip-rule="evenodd" d="M11.1304 9.73914H12.5217V11.1304H11.1304V9.73914Z" fill="white"/>
<path fill-rule="evenodd" clip-rule="evenodd" d="M11.1304 11.1304H12.5217V12.5217H11.1304V11.1304Z" fill="white"/>
<path fill-rule="evenodd" clip-rule="evenodd" d="M11.1304 12.5217H12.5217V13.913H11.1304V12.5217Z" fill="white"/>
<path fill-rule="evenodd" clip-rule="evenodd" d="M11.1304 13.913H12.5217V15.3043H11.1304V13.913Z" fill="white"/>
<path fill-rule="evenodd" clip-rule="evenodd" d="M11.1304 15.3043H12.5217V16.6956H11.1304V15.3043Z" fill="white"/>
<path fill-rule="evenodd" clip-rule="evenodd" d="M11.1304 16.6956H12.5217V18.0869H11.1304V16.6956Z" fill="white"/>
<path fill-rule="evenodd" clip-rule="evenodd" d="M11.1304 18.0869H12.5217V19.4782H11.1304V18.0869Z" fill="white"/>
<path fill-rule="evenodd" clip-rule="evenodd" d="M11.1304 19.4783H12.5217V20.8696H11.1304V19.4783Z" fill="white"/>
<path fill-rule="evenodd" clip-rule="evenodd" d="M11.1304 20.8695H12.5217V22.2608H11.1304V20.8695Z" fill="white"/>
<path fill-rule="evenodd" clip-rule="evenodd" d="M11.1304 22.2609H12.5217V23.6522H11.1304V22.2609Z" fill="white"/>
<path fill-rule="evenodd" clip-rule="evenodd" d="M11.1304 23.6521H12.5217V25.0434H11.1304V23.6521Z" fill="white"/>
<path fill-rule="evenodd" clip-rule="evenodd" d="M11.1304 25.0435H12.5217V26.4348H11.1304V25.0435Z" fill="white"/>
<path fill-rule="evenodd" clip-rule="evenodd" d="M11.1304 26.4347H12.5217V27.826H11.1304V26.4347Z" fill="white"/>
<path fill-rule="evenodd" clip-rule="evenodd" d="M11.1304 27.826H12.5217V29.2174H11.1304V27.826Z" fill="white"/>
<path fill-rule="evenodd" clip-rule="evenodd" d="M11.1304 29.2173H12.5217V30.6086H11.1304V29.2173Z" fill="white"/>
<path fill-rule="evenodd" clip-rule="evenodd" d="M11.1304 30.6086H12.5217V31.9999H11.1304V30.6086Z" fill="black"/>
<path fill-rule="evenodd" clip-rule="evenodd" d="M12.5217 6.95654H13.913V8.34785H12.5217V6.95654Z" fill="black"/>
<path fill-rule="evenodd" clip-rule="evenodd" d="M12.5217 8.34778H13.913V9.73908H12.5217V8.34778Z" fill="white"/>
<path fill-rule="evenodd" clip-rule="evenodd" d="M12.5217 9.73914H13.913V11.1304H12.5217V9.73914Z" fill="white"/>
<path fill-rule="evenodd" clip-rule="evenodd" d="M12.5217 11.1304H13.913V12.5217H12.5217V11.1304Z" fill="white"/>
<path fill-rule="evenodd" clip-rule="evenodd" d="M12.5217 12.5217H13.913V13.913H12.5217V12.5217Z" fill="white"/>
<path fill-rule="evenodd" clip-rule="evenodd" d="M12.5217 13.913H13.913V15.3043H12.5217V13.913Z" fill="white"/>
<path fill-rule="evenodd" clip-rule="evenodd" d="M12.5217 15.3043H13.913V16.6956H12.5217V15.3043Z" fill="white"/>
<path fill-rule="evenodd" clip-rule="evenodd" d="M12.5217 16.6956H13.913V18.0869H12.5217V16.6956Z" fill="white"/>
<path fill-rule="evenodd" clip-rule="evenodd" d="M12.5217 18.0869H13.913V19.4782H12.5217V18.0869Z" fill="white"/>
<path fill-rule="evenodd" clip-rule="evenodd" d="M12.5217 19.4783H13.913V20.8696H12.5217V19.4783Z" fill="white"/>
<path fill-rule="evenodd" clip-rule="evenodd" d="M12.5217 20.8695H13.913V22.2608H12.5217V20.8695Z" fill="white"/>
<path fill-rule="evenodd" clip-rule="evenodd" d="M12.5217 22.2609H13.913V23.6522H12.5217V22.2609Z" fill="white"/>
<path fill-rule="evenodd" clip-rule="evenodd" d="M12.5217 23.6521H13.913V25.0434H12.5217V23.6521Z" fill="white"/>
<path fill-rule="evenodd" clip-rule="evenodd" d="M12.5217 25.0435H13.913V26.4348H12.5217V25.0435Z" fill="white"/>
<path fill-rule="evenodd" clip-rule="evenodd" d="M12.5217 26.4347H13.913V27.826H12.5217V26.4347Z" fill="white"/>
<path fill-rule="evenodd" clip-rule="evenodd" d="M12.5217 27.826H13.913V29.2174H12.5217V27.826Z" fill="white"/>
<path fill-rule="evenodd" clip-rule="evenodd" d="M12.5217 29.2173H13.913V30.6086H12.5217V29.2173Z" fill="white"/>
<path fill-rule="evenodd" clip-rule="evenodd" d="M12.5217 30.6086H13.913V31.9999H12.5217V30.6086Z" fill="black"/>
<path fill-rule="evenodd" clip-rule="evenodd" d="M13.9131 8.34778H15.3044V9.73908H13.9131V8.34778Z" fill="black"/>
<path fill-rule="evenodd" clip-rule="evenodd" d="M13.9131 9.73914H15.3044V11.1304H13.9131V9.73914Z" fill="black"/>
<path fill-rule="evenodd" clip-rule="evenodd" d="M13.9131 11.1305H15.3044V12.5218H13.9131V11.1305Z" fill="black"/>
<path fill-rule="evenodd" clip-rule="evenodd" d="M13.9131 12.5217H15.3044V13.913H13.9131V12.5217Z" fill="black"/>
<path fill-rule="evenodd" clip-rule="evenodd" d="M13.9131 13.9131H15.3044V15.3044H13.9131V13.9131Z" fill="white"/>
<path fill-rule="evenodd" clip-rule="evenodd" d="M13.9131 15.3044H15.3044V16.6957H13.9131V15.3044Z" fill="white"/>
<path fill-rule="evenodd" clip-rule="evenodd" d="M13.9131 16.6957H15.3044V18.087H13.9131V16.6957Z" fill="white"/>
<path fill-rule="evenodd" clip-rule="evenodd" d="M13.9131 18.087H15.3044V19.4783H13.9131V18.087Z" fill="white"/>
<path fill-rule="evenodd" clip-rule="evenodd" d="M13.9131 19.4783H15.3044V20.8696H13.9131V19.4783Z" fill="white"/>
<path fill-rule="evenodd" clip-rule="evenodd" d="M13.9131 20.8696H15.3044V22.2609H13.9131V20.8696Z" fill="white"/>
<path fill-rule="evenodd" clip-rule="evenodd" d="M13.9131 22.2609H15.3044V23.6522H13.9131V22.2609Z" fill="white"/>
<path fill-rule="evenodd" clip-rule="evenodd" d="M13.9131 23.6522H15.3044V25.0435H13.9131V23.6522Z" fill="white"/>
<path fill-rule="evenodd" clip-rule="evenodd" d="M13.9131 25.0436H15.3044V26.4349H13.9131V25.0436Z" fill="white"/>
<path fill-rule="evenodd" clip-rule="evenodd" d="M13.9131 26.4348H15.3044V27.8261H13.9131V26.4348Z" fill="white"/>
<path fill-rule="evenodd" clip-rule="evenodd" d="M13.9131 27.8262H15.3044V29.2175H13.9131V27.8262Z" fill="white"/>
<path fill-rule="evenodd" clip-rule="evenodd" d="M13.9131 29.2174H15.3044V30.6087H13.9131V29.2174Z" fill="white"/>
<path fill-rule="evenodd" clip-rule="evenodd" d="M13.9131 30.6086H15.3044V31.9999H13.9131V30.6086Z" fill="black"/>
<path fill-rule="evenodd" clip-rule="evenodd" d="M15.3044 8.34778H16.6957V9.73908H15.3044V8.34778Z" fill="black"/>
<path fill-rule="evenodd" clip-rule="evenodd" d="M15.3044 9.73914H16.6957V11.1304H15.3044V9.73914Z" fill="white"/>
<path fill-rule="evenodd" clip-rule="evenodd" d="M15.3044 11.1305H16.6957V12.5218H15.3044V11.1305Z" fill="white"/>
<path fill-rule="evenodd" clip-rule="evenodd" d="M15.3044 12.5217H16.6957V13.913H15.3044V12.5217Z" fill="white"/>
<path fill-rule="evenodd" clip-rule="evenodd" d="M15.3044 13.9131H16.6957V15.3044H15.3044V13.9131Z" fill="white"/>
<path fill-rule="evenodd" clip-rule="evenodd" d="M15.3044 15.3043H16.6957V16.6956H15.3044V15.3043Z" fill="white"/>
<path fill-rule="evenodd" clip-rule="evenodd" d="M15.3044 16.6957H16.6957V18.087H15.3044V16.6957Z" fill="white"/>
<path fill-rule="evenodd" clip-rule="evenodd" d="M15.3044 18.0869H16.6957V19.4782H15.3044V18.0869Z" fill="white"/>
<path fill-rule="evenodd" clip-rule="evenodd" d="M15.3044 19.4783H16.6957V20.8696H15.3044V19.4783Z" fill="white"/>
<path fill-rule="evenodd" clip-rule="evenodd" d="M15.3044 20.8696H16.6957V22.2609H15.3044V20.8696Z" fill="white"/>
<path fill-rule="evenodd" clip-rule="evenodd" d="M15.3044 22.2609H16.6957V23.6522H15.3044V22.2609Z" fill="white"/>
<path fill-rule="evenodd" clip-rule="evenodd" d="M15.3044 23.6522H16.6957V25.0435H15.3044V23.6522Z" fill="white"/>
<path fill-rule="evenodd" clip-rule="evenodd" d="M15.3044 25.0435H16.6957V26.4348H15.3044V25.0435Z" fill="white"/>
<path fill-rule="evenodd" clip-rule="evenodd" d="M15.3044 26.4348H16.6957V27.8261H15.3044V26.4348Z" fill="white"/>
<path fill-rule="evenodd" clip-rule="evenodd" d="M15.3044 27.826H16.6957V29.2174H15.3044V27.826Z" fill="white"/>
<path fill-rule="evenodd" clip-rule="evenodd" d="M15.3044 29.2174H16.6957V30.6087H15.3044V29.2174Z" fill="white"/>
<path fill-rule="evenodd" clip-rule="evenodd" d="M15.3044 30.6086H16.6957V31.9999H15.3044V30.6086Z" fill="black"/>
<path fill-rule="evenodd" clip-rule="evenodd" d="M16.6956 8.34778H18.087V9.73908H16.6956V8.34778Z" fill="black"/>
<path fill-rule="evenodd" clip-rule="evenodd" d="M16.6956 9.73914H18.087V11.1304H16.6956V9.73914Z" fill="white"/>
<path fill-rule="evenodd" clip-rule="evenodd" d="M16.6956 11.1305H18.087V12.5218H16.6956V11.1305Z" fill="white"/>
<path fill-rule="evenodd" clip-rule="evenodd" d="M16.6956 12.5217H18.087V13.913H16.6956V12.5217Z" fill="white"/>
<path fill-rule="evenodd" clip-rule="evenodd" d="M16.6956 13.9131H18.087V15.3044H16.6956V13.9131Z" fill="white"/>
<path fill-rule="evenodd" clip-rule="evenodd" d="M16.6956 15.3043H18.087V16.6956H16.6956V15.3043Z" fill="white"/>
<path fill-rule="evenodd" clip-rule="evenodd" d="M16.6956 16.6957H18.087V18.087H16.6956V16.6957Z" fill="white"/>
<path fill-rule="evenodd" clip-rule="evenodd" d="M16.6956 18.0869H18.087V19.4782H16.6956V18.0869Z" fill="white"/>
<path fill-rule="evenodd" clip-rule="evenodd" d="M16.6956 19.4783H18.087V20.8696H16.6956V19.4783Z" fill="white"/>
<path fill-rule="evenodd" clip-rule="evenodd" d="M16.6956 20.8696H18.087V22.2609H16.6956V20.8696Z" fill="white"/>
<path fill-rule="evenodd" clip-rule="evenodd" d="M16.6956 22.2609H18.087V23.6522H16.6956V22.2609Z" fill="white"/>
<path fill-rule="evenodd" clip-rule="evenodd" d="M16.6956 23.6522H18.087V25.0435H16.6956V23.6522Z" fill="white"/>
<path fill-rule="evenodd" clip-rule="evenodd" d="M16.6956 25.0435H18.087V26.4348H16.6956V25.0435Z" fill="white"/>
<path fill-rule="evenodd" clip-rule="evenodd" d="M16.6956 26.4348H18.087V27.8261H16.6956V26.4348Z" fill="white"/>
<path fill-rule="evenodd" clip-rule="evenodd" d="M16.6956 27.826H18.087V29.2174H16.6956V27.826Z" fill="white"/>
<path fill-rule="evenodd" clip-rule="evenodd" d="M16.6956 29.2174H18.087V30.6087H16.6956V29.2174Z" fill="white"/>
<path fill-rule="evenodd" clip-rule="evenodd" d="M16.6956 30.6086H18.087V31.9999H16.6956V30.6086Z" fill="black"/>
<path fill-rule="evenodd" clip-rule="evenodd" d="M18.0869 9.73914H19.4782V11.1304H18.0869V9.73914Z" fill="black"/>
<path fill-rule="evenodd" clip-rule="evenodd" d="M18.0869 11.1305H19.4782V12.5218H18.0869V11.1305Z" fill="black"/>
<path fill-rule="evenodd" clip-rule="evenodd" d="M18.0869 12.5217H19.4782V13.913H18.0869V12.5217Z" fill="black"/>
<path fill-rule="evenodd" clip-rule="evenodd" d="M18.0869 13.9131H19.4782V15.3044H18.0869V13.9131Z" fill="black"/>
<path fill-rule="evenodd" clip-rule="evenodd" d="M18.0869 15.3043H19.4782V16.6956H18.0869V15.3043Z" fill="white"/>
<path fill-rule="evenodd" clip-rule="evenodd" d="M18.0869 16.6957H19.4782V18.087H18.0869V16.6957Z" fill="white"/>
<path fill-rule="evenodd" clip-rule="evenodd" d="M18.0869 18.0869H19.4782V19.4782H18.0869V18.0869Z" fill="white"/>
<path fill-rule="evenodd" clip-rule="evenodd" d="M18.0869 19.4783H19.4782V20.8696H18.0869V19.4783Z" fill="white"/>
<path fill-rule="evenodd" clip-rule="evenodd" d="M18.0869 20.8695H19.4782V22.2608H18.0869V20.8695Z" fill="white"/>
<path fill-rule="evenodd" clip-rule="evenodd" d="M18.0869 22.2609H19.4782V23.6522H18.0869V22.2609Z" fill="white"/>
<path fill-rule="evenodd" clip-rule="evenodd" d="M18.0869 23.6521H19.4782V25.0434H18.0869V23.6521Z" fill="white"/>
<path fill-rule="evenodd" clip-rule="evenodd" d="M18.0869 25.0435H19.4782V26.4348H18.0869V25.0435Z" fill="white"/>
<path fill-rule="evenodd" clip-rule="evenodd" d="M18.0869 26.4348H19.4782V27.8261H18.0869V26.4348Z" fill="white"/>
<path fill-rule="evenodd" clip-rule="evenodd" d="M18.0869 27.826H19.4782V29.2174H18.0869V27.826Z" fill="white"/>
<path fill-rule="evenodd" clip-rule="evenodd" d="M18.0869 29.2174H19.4782V30.6087H18.0869V29.2174Z" fill="white"/>
<path fill-rule="evenodd" clip-rule="evenodd" d="M18.0869 30.6086H19.4782V31.9999H18.0869V30.6086Z" fill="black"/>
<path fill-rule="evenodd" clip-rule="evenodd" d="M19.4783 9.73914H20.8696V11.1304H19.4783V9.73914Z" fill="black"/>
<path fill-rule="evenodd" clip-rule="evenodd" d="M19.4783 11.1305H20.8696V12.5218H19.4783V11.1305Z" fill="white"/>
<path fill-rule="evenodd" clip-rule="evenodd" d="M19.4783 12.5219H20.8696V13.9132H19.4783V12.5219Z" fill="white"/>
<path fill-rule="evenodd" clip-rule="evenodd" d="M19.4783 13.9131H20.8696V15.3044H19.4783V13.9131Z" fill="white"/>
<path fill-rule="evenodd" clip-rule="evenodd" d="M19.4783 15.3044H20.8696V16.6957H19.4783V15.3044Z" fill="white"/>
<path fill-rule="evenodd" clip-rule="evenodd" d="M19.4783 16.6957H20.8696V18.087H19.4783V16.6957Z" fill="white"/>
<path fill-rule="evenodd" clip-rule="evenodd" d="M19.4783 18.087H20.8696V19.4783H19.4783V18.087Z" fill="white"/>
<path fill-rule="evenodd" clip-rule="evenodd" d="M19.4783 19.4783H20.8696V20.8696H19.4783V19.4783Z" fill="white"/>
<path fill-rule="evenodd" clip-rule="evenodd" d="M19.4783 20.8696H20.8696V22.2609H19.4783V20.8696Z" fill="white"/>
<path fill-rule="evenodd" clip-rule="evenodd" d="M19.4783 22.261H20.8696V23.6523H19.4783V22.261Z" fill="white"/>
<path fill-rule="evenodd" clip-rule="evenodd" d="M19.4783 23.6522H20.8696V25.0435H19.4783V23.6522Z" fill="white"/>
<path fill-rule="evenodd" clip-rule="evenodd" d="M19.4783 25.0436H20.8696V26.4349H19.4783V25.0436Z" fill="white"/>
<path fill-rule="evenodd" clip-rule="evenodd" d="M19.4783 26.4348H20.8696V27.8261H19.4783V26.4348Z" fill="white"/>
<path fill-rule="evenodd" clip-rule="evenodd" d="M19.4783 27.826H20.8696V29.2174H19.4783V27.826Z" fill="black"/>
<path fill-rule="evenodd" clip-rule="evenodd" d="M19.4783 29.2174H20.8696V30.6087H19.4783V29.2174Z" fill="black"/>
<path fill-rule="evenodd" clip-rule="evenodd" d="M19.4783 30.6086H20.8696V31.9999H19.4783V30.6086Z" fill="black"/>
<path fill-rule="evenodd" clip-rule="evenodd" d="M20.8696 11.1305H22.2609V12.5218H20.8696V11.1305Z" fill="black"/>
<path fill-rule="evenodd" clip-rule="evenodd" d="M20.8696 12.5217H22.2609V13.913H20.8696V12.5217Z" fill="white"/>
<path fill-rule="evenodd" clip-rule="evenodd" d="M20.8696 13.9131H22.2609V15.3044H20.8696V13.9131Z" fill="white"/>
<path fill-rule="evenodd" clip-rule="evenodd" d="M20.8696 15.3043H22.2609V16.6956H20.8696V15.3043Z" fill="white"/>
<path fill-rule="evenodd" clip-rule="evenodd" d="M20.8696 16.6957H22.2609V18.087H20.8696V16.6957Z" fill="white"/>
<path fill-rule="evenodd" clip-rule="evenodd" d="M20.8696 18.0869H22.2609V19.4782H20.8696V18.0869Z" fill="white"/>
<path fill-rule="evenodd" clip-rule="evenodd" d="M20.8696 19.4783H22.2609V20.8696H20.8696V19.4783Z" fill="white"/>
<path fill-rule="evenodd" clip-rule="evenodd" d="M20.8696 20.8695H22.2609V22.2608H20.8696V20.8695Z" fill="white"/>
<path fill-rule="evenodd" clip-rule="evenodd" d="M20.8696 22.2609H22.2609V23.6522H20.8696V22.2609Z" fill="white"/>
<path fill-rule="evenodd" clip-rule="evenodd" d="M20.8696 23.6522H22.2609V25.0435H20.8696V23.6522Z" fill="black"/>
<path fill-rule="evenodd" clip-rule="evenodd" d="M20.8696 25.0435H22.2609V26.4348H20.8696V25.0435Z" fill="black"/>
<path fill-rule="evenodd" clip-rule="evenodd" d="M20.8696 26.4348H22.2609V27.8261H20.8696V26.4348Z" fill="black"/>
<path fill-rule="evenodd" clip-rule="evenodd" d="M22.2609 12.5217H23.6522V13.913H22.2609V12.5217Z" fill="black"/>
<path fill-rule="evenodd" clip-rule="evenodd" d="M22.2609 13.9131H23.6522V15.3044H22.2609V13.9131Z" fill="black"/>
<path fill-rule="evenodd" clip-rule="evenodd" d="M22.2609 15.3043H23.6522V16.6956H22.2609V15.3043Z" fill="black"/>
<path fill-rule="evenodd" clip-rule="evenodd" d="M22.2609 16.6957H23.6522V18.087H22.2609V16.6957Z" fill="black"/>
<path fill-rule="evenodd" clip-rule="evenodd" d="M22.2609 18.0869H23.6522V19.4782H22.2609V18.0869Z" fill="black"/>
<path fill-rule="evenodd" clip-rule="evenodd" d="M22.2609 19.4783H23.6522V20.8696H22.2609V19.4783Z" fill="black"/>
<path fill-rule="evenodd" clip-rule="evenodd" d="M22.2609 20.8696H23.6522V22.2609H22.2609V20.8696Z" fill="black"/>
<path fill-rule="evenodd" clip-rule="evenodd" d="M22.2609 22.2609H23.6522V23.6522H22.2609V22.2609Z" fill="black"/>
</g>
<defs>
<clipPath id="clip0_53_18">
<rect width="23.6522" height="32" fill="white"/>
</clipPath>
</defs>
</svg>
