<svg width="17" height="22" viewBox="0 0 17 22" fill="none" xmlns="http://www.w3.org/2000/svg">
<path fill-rule="evenodd" clip-rule="evenodd" d="M3 0H0V2.00005H3H3.00001H6.00001V0H3.00001H3ZM14 0H11V2.00005H14H14H17V0H14H14ZM6.00001 5.99975V4.00184V4.0003V2.00178H3.00001H3H0V4.0003V4.00184V5.99975V6.00035V7.99966V7.9998V9.99864V9.99971V11.9987H3H3.00001H6.00001V9.99971V9.99864V7.9998V7.99966V6.00035V5.99975ZM17 4.00184V5.99975V6.00035V7.99966V7.9998V9.99864V9.99971V11.9987H14H14H11V9.99971V9.99864V7.9998V7.99966V6.00035V5.99975V4.00184V4.0003V2.00178H14H14H17V4.0003V4.00184ZM6.00001 16.0018V17.9997V18.0008V19.9998H3.00001H0V18.0008V17.9997V16.0018V16.0007V14.0017H3H3.00001H6.00001V16.0007V16.0018ZM17 17.9997V16.0018V16.0007V14.0017H14H14H11V16.0007V16.0018V17.9997V18.0008V19.9998H14H17V18.0008V17.9997ZM0 12.0004H3H3.00001H6.00001V14.0005H3.00001H3H0V12.0004ZM14 12.0004H11V14.0005H14H14H17V12.0004H14H14ZM0 20.0001H3.00001H6.00001V22.0001H3.00001H0V20.0001ZM14 20.0001H11V22.0001H14H17V20.0001H14Z" fill="white"/>
</svg>
